Coordinates
nRows=7
nColumns=38

# SIMM Motion File Header:
name Coordinates
datacolumns 38
datarows 7
otherdata 1
range 2.14500000000000000000 2.15099999999999980000

Units are S.I. units (second, meters, Newtons, ...)
Angles are in degrees.

endheader
time	pelvis_tilt	pelvis_list	pelvis_rotation	pelvis_tx	pelvis_ty	pelvis_tz	hip_flexion_r	hip_adduction_r	hip_rotation_r	knee_angle_r	ankle_angle_r	subtalar_angle_r	mtp_angle_r	hip_flexion_l	hip_adduction_l	hip_rotation_l	knee_angle_l	ankle_angle_l	subtalar_angle_l	mtp_angle_l	lumbar_extension	lumbar_bending	lumbar_rotation	arm_flex_r	arm_add_r	arm_rot_r	elbow_flex_r	pro_sup_r	wrist_flex_r	wrist_dev_r	arm_flex_l	arm_add_l	arm_rot_l	elbow_flex_l	pro_sup_l	wrist_flex_l	wrist_dev_l
      2.14500000000000000000	      0.42753239699811957000	      2.55310493823974930000	      1.29517872929670360000	      0.72052131253537099000	      1.03217403982122310000	     -0.30849508141320797000	     17.55787039532884800000	      0.93671226884544423000	      3.08803776044618330000	     -9.02774334997396370000	      1.72218086483448740000	      0.00000000000000000000	      0.00000000000000000000	    -12.45720438740653800000	      5.79084614434627020000	      5.26677988238998740000	    -29.62798168262862900000	    -14.69084394563040900000	      0.00000000000000000000	      0.00000000000000000000	    -13.33865370842846700000	     -4.28744257098055210000	     -9.90593801272514620000	    -36.35894464942028700000	    -10.94768429150634700000	    -10.52073584320749900000	     92.29706676642675200000	     70.80965883324995500000	      0.00000000000000000000	      0.00000000000000000000	      2.77126814524792970000	    -23.02214627919041200000	      9.07387961758065660000	    111.53941723391158000000	     94.19420073987387800000	      0.00000000000000000000	      0.00000000000000000000
      2.14599999999999990000	      0.50252815639655368000	      2.56569561284570110000	      1.31350808512645330000	      0.72054657174015846000	      1.03193318238263340000	     -0.30846931401375832000	     17.47393357361499600000	      0.93702989386027213000	      3.00666281846553090000	     -9.15282501136950440000	      1.71571669753737170000	     -0.00000000000000000713	      0.00000000000000000760	    -12.37961156889557100000	      5.80191951908880730000	      5.25561476409620630000	    -30.06724281788306300000	    -14.85388593362963400000	      0.00000000000000000131	     -0.00000000000000000031	    -13.42796742040673200000	     -4.27684024859228630000	     -9.87646834989942950000	    -36.33127229411397300000	    -10.94488293766751700000	    -10.54545899089601800000	     92.34844884876355300000	     70.78603696097505300000	     -0.00000000000000000124	      0.00000000000000000071	      2.77016027767224890000	    -23.04369553053782100000	      9.13941517295868520000	    111.51469352560810000000	     94.17281024964948700000	      0.00000000000000000019	     -0.00000000000000000006
      2.14699999999999980000	      0.57968114376383717000	      2.57820873573469680000	      1.33192178269476980000	      0.72057166435519882000	      1.03168635003671040000	     -0.30844438131169921000	     17.38744885258725100000	      0.93726770716551189000	      2.92114318555343690000	     -9.28305460662069850000	      1.72684635311179280000	     -0.00000000000000003025	      0.00000000000000000246	    -12.30264309244694900000	      5.81276160173387350000	      5.24295207841405910000	    -30.50816657678698000000	    -15.02049748929954700000	      0.00000000000000000363	     -0.00000000000000001887	    -13.51969463030734200000	     -4.26595675440277230000	     -9.84652417830329260000	    -36.30199239559156900000	    -10.94389914180713900000	    -10.56940266989835000000	     92.40016893452929000000	     70.76146810734404400000	     -0.00000000000000000315	     -0.00000000000000001176	      2.76809345433193420000	    -23.06455913363873100000	      9.20416641245970270000	    111.48896520671002000000	     94.15136148348541700000	      0.00000000000000000074	     -0.00000000000000000009
      2.14800000000000010000	      0.65898398171760864000	      2.59013470900621060000	      1.35019946113785560000	      0.72059612296447861000	      1.03143419968457660000	     -0.30841986462389809000	     17.29853313836404600000	      0.93812202074320528000	      2.83788935420076660000	     -9.41791702507107150000	      1.73172173649462360000	     -0.00000000000000005576	     -0.00000000000000000695	    -12.22627072049526800000	      5.82280069836389650000	      5.22833955061236290000	    -30.95065918423345200000	    -15.19062470333816800000	      0.00000000000000000767	     -0.00000000000000004504	    -13.61384999848371900000	     -4.25425952099891800000	     -9.81577791615858610000	    -36.27095362747847000000	    -10.94482792699714900000	    -10.59258561598357500000	     92.45207097343627800000	     70.73594889949414700000	      0.00000000000000000015	     -0.00000000000000001151	      2.76514882722942090000	    -23.08455272767173500000	      9.26813854359287250000	    111.46203167755938000000	     94.12997798758834700000	      0.00000000000000000120	      0.00000000000000000076
      2.14900000000000000000	      0.74044475488064010000	      2.60163733681535710000	      1.36842208196449700000	      0.72061997018975676000	      1.03117665030109440000	     -0.30839591078851364000	     17.20714952255373500000	      0.93935380804460600000	      2.75572509738467410000	     -9.55726227198385200000	      1.73455245626747700000	     -0.00000000000000008048	     -0.00000000000000001949	    -12.15055813784253600000	      5.83215701940667590000	      5.21188167589493020000	    -31.39457834368719700000	    -15.36424434796739600000	      0.00000000000000001198	     -0.00000000000000007290	    -13.71043301240925600000	     -4.24190937061041670000	     -9.78434871588309820000	    -36.23817503051351000000	    -10.94765525917770400000	    -10.61499516238391500000	     92.50416394336319600000	     70.70949611901460200000	      0.00000000000000000963	     -0.00000000000000000900	      2.76132224718123130000	    -23.10372216855281700000	      9.33134019730464640000	    111.43394465291372000000	     94.10863027715008400000	      0.00000000000000000109	      0.00000000000000000169
      2.14999999999999990000	      0.82402337742116483000	      2.61274564229792360000	      1.38656630927698690000	      0.72064313478592823000	      1.03091366810441150000	     -0.30837249599232525000	     17.11336265838722100000	      0.94092155918545062000	      2.67486118142366940000	     -9.70092035367939510000	      1.73491711554301140000	     -0.00000000000000009359	     -0.00000000000000003286	    -12.07550511060755100000	      5.84082130399926400000	      5.19352911687407740000	    -31.83979260663483000000	    -15.54127658503974100000	      0.00000000000000001549	     -0.00000000000000010237	    -13.80939032610894300000	     -4.22893806339602830000	     -9.75222482235398220000	    -36.20365149894485800000	    -10.95239267981476200000	    -10.63662412495769700000	     92.55642589117825000000	     70.68212346526934200000	      0.00000000000000001288	     -0.00000000000000000930	      2.75661590207915450000	    -23.12206314640282700000	      9.39377541484557280000	    111.40470909505325000000	     94.08732131760868400000	      0.00000000000000000084	      0.00000000000000000106
      2.15099999999999980000	      0.90961478274010976000	      2.62348466930059750000	      1.40455065236100340000	      0.72066555276429589000	      1.03064507467630810000	     -0.30834951224372437000	     17.01733458990723600000	      0.94279850929239961000	      2.59519021251584810000	     -9.84878750333046680000	      1.73349282586389640000	     -0.00000000000000014624	     -0.00000000000000005050	    -12.00104403520724700000	      5.84879419562383160000	      5.17317969710746440000	    -32.28617714205861200000	    -15.72159164891884400000	      0.00000000000000001858	     -0.00000000000000012560	    -13.91058908172225700000	     -4.21538841875952560000	     -9.71933750879696130000	    -36.16739468440495400000	    -10.95905663579823800000	    -10.65746542882560800000	     92.60883843501768800000	     70.65384414695246600000	     -0.00000000000000000062	     -0.00000000000000001166	      2.75101647884070300000	    -23.13956401393658500000	      9.45544207461851550000	    111.37433223018472000000	     94.06605899061312900000	      0.00000000000000000048	      0.00000000000000000034
